<svg xmlns="http://www.w3.org/2000/svg" width="32" height="32" viewBox="0 0 256 256">
  <defs>
    <linearGradient id="gradient" x1="0%" y1="0%" x2="100%" y2="100%">
      <stop offset="0%" style="stop-color:#3b82f6;stop-opacity:1" />
      <stop offset="100%" style="stop-color:#8b5cf6;stop-opacity:1" />
    </linearGradient>
  </defs>
  <rect width="256" height="256" fill="url(#gradient)" rx="48"/>
  <circle cx="64" cy="80" r="20" fill="white"/>
  <circle cx="128" cy="60" r="20" fill="white"/>
  <circle cx="192" cy="80" r="20" fill="white"/>
  <circle cx="64" cy="176" r="20" fill="white"/>
  <circle cx="128" cy="140" r="20" fill="white"/>
  <circle cx="128" cy="200" r="20" fill="white"/>
  <circle cx="192" cy="176" r="20" fill="white"/>
  <line x1="64" y1="80" x2="128" y2="60" stroke="white" stroke-width="4"/>
  <line x1="128" y1="60" x2="192" y2="80" stroke="white" stroke-width="4"/>
  <line x1="64" y1="80" x2="128" y2="140" stroke="white" stroke-width="4"/>
  <line x1="192" y1="80" x2="128" y2="140" stroke="white" stroke-width="4"/>
  <line x1="64" y1="176" x2="128" y2="140" stroke="white" stroke-width="4"/>
  <line x1="64" y1="176" x2="128" y2="200" stroke="white" stroke-width="4"/>
  <line x1="192" y1="176" x2="128" y2="140" stroke="white" stroke-width="4"/>
  <line x1="192" y1="176" x2="128" y2="200" stroke="white" stroke-width="4"/>
  <line x1="128" y1="140" x2="128" y2="200" stroke="white" stroke-width="4"/>
</svg>
